<?xml version="1.0" encoding="UTF-8"?>
<svg id="Camada_2" data-name="Camada 2" xmlns="http://www.w3.org/2000/svg" viewBox="0 0 525.9 251.62">
  <defs>
    <style>
      .cls-1 {
        fill: #673799;
      }

      .cls-2 {
        fill: #dc165f;
      }

      .cls-3 {
        fill: #213536;
      }

      .cls-4 {
        fill: #fdedd8;
      }

      .cls-5 {
        fill: #9970b5;
      }
    </style>
  </defs>
  <g id="Camada_1-2" data-name="Camada 1">
    <g>
      <rect class="cls-1" x="379.67" width="145.9" height="146.47"/>
      <rect class="cls-2" x="0" y=".13" width="376.71" height="146.47"/>
      <rect class="cls-3" y="149.58" width="261.29" height="102.05"/>
      <rect class="cls-5" x="264.61" y="149.58" width="261.29" height="102.05"/>
      <g>
        <path class="cls-4" d="M40.69,35.69h20.56c13.24,0,20.02,7,20.02,19.91v35.41c0,13.02-6.78,20.02-20.02,20.02h-20.56V35.69ZM61.03,99.08c4.52,0,6.78-2.15,6.78-7.64v-36.16c0-5.49-2.26-7.64-6.78-7.64h-6.89v51.45h6.89Z"/>
        <path class="cls-4" d="M90.52,35.69h36.7v11.95h-23.25v18.62h18.51v11.95h-18.51v20.88h23.25v11.95h-36.7V35.69Z"/>
        <path class="cls-4" d="M132.92,92.3v-3.87h12.7v4.31c0,4.95,2.37,7.64,7,7.64,4.2,0,7-2.48,7-7.75,0-6.35-2.58-9.04-11.52-14.96-11.41-7.53-14.96-13.88-14.96-23.46,0-12.05,6.89-19.59,19.91-19.59s19.48,7.53,19.48,19.8v2.69h-12.7v-3.01c0-5.06-2.15-7.75-6.67-7.75-4.2,0-6.67,2.48-6.67,7.43,0,5.6,2.8,8.39,11.73,14.21,11.62,7.53,14.85,13.99,14.85,24,0,12.48-7.1,20.13-20.34,20.13s-19.8-7.64-19.8-19.8Z"/>
        <path class="cls-4" d="M207.08,96.82h-15.28l-2.26,14.21h-12.59l13.88-75.34h18.19l13.99,75.34h-13.67l-2.26-14.21ZM205.14,85.2l-5.7-35.84-5.7,35.84h11.41Z"/>
        <path class="cls-4" d="M229.79,35.69h35.62v11.95h-22.17v19.48h17.33v11.95h-17.33v31.97h-13.45V35.69Z"/>
        <path class="cls-4" d="M272.41,35.69h13.45v75.34h-13.45V35.69Z"/>
        <path class="cls-4" d="M295.23,91.76v-36.81c0-12.92,7.21-20.34,20.34-20.34s20.45,7.43,20.45,20.34v36.81c0,12.81-7.21,20.34-20.45,20.34s-20.34-7.53-20.34-20.34ZM322.56,92.41v-38.1c0-5.27-2.58-7.75-7-7.75s-6.89,2.48-6.89,7.75v38.1c0,5.17,2.48,7.75,6.89,7.75s7-2.58,7-7.75Z"/>
      </g>
      <g>
        <path class="cls-4" d="M408.23,99.18c0-10.36,3.42-17.2,13.89-26.92,9.4-8.65,12.61-13.03,12.61-19.98,0-5.98-2.67-8.12-6.84-8.12s-6.95,2.35-6.95,7.91v6.94h-12.61v-6.62c0-12.5,6.84-20.09,19.87-20.09s19.87,7.59,19.87,19.55c0,9.72-4.59,16.99-17.31,28.63-7.58,6.94-9.29,10.36-9.29,14.74v1.07h25.32v11.86h-38.57v-8.97Z"/>
        <path class="cls-4" d="M455.77,33.36h20.41c13.14,0,19.87,6.94,19.87,19.77v35.15c0,12.93-6.73,19.87-19.87,19.87h-20.41V33.36ZM475.96,96.29c4.49,0,6.73-2.14,6.73-7.59v-35.9c0-5.45-2.24-7.59-6.73-7.59h-6.84v51.07h6.84Z"/>
      </g>
      <g>
        <path class="cls-4" d="M491.92,126.01h-.91v6.83h.91c.6,0,.9-.29.9-1.01v-4.8c0-.73-.3-1.01-.9-1.01Z"/>
        <polygon class="cls-4" points="500.77 131 502.29 131 501.53 126.24 500.77 131"/>
        <path class="cls-4" d="M511.19,120.48h-22.64c-4.94,0-8.94,4-8.94,8.94s4,8.94,8.94,8.94h22.64c4.94,0,8.94-4,8.94-8.94s-4-8.94-8.94-8.94ZM494.61,131.77c0,1.73-.9,2.66-2.66,2.66h-2.73v-10.01h2.73c1.76,0,2.66.93,2.66,2.65v4.7ZM497.62,134.43h-1.79v-10.01h1.79v10.01ZM502.84,134.43l-.3-1.89h-2.03l-.3,1.89h-1.67l1.84-10.01h2.42l1.86,10.01h-1.82ZM507.82,134.57c-1.74,0-2.63-1.02-2.63-2.63v-.51h1.69v.57c0,.66.31,1.02.93,1.02.56,0,.93-.33.93-1.03,0-.84-.34-1.2-1.53-1.99-1.52-1-1.99-1.84-1.99-3.12,0-1.6.91-2.6,2.64-2.6s2.59,1,2.59,2.63v.36h-1.69v-.4c0-.67-.29-1.03-.89-1.03-.56,0-.89.33-.89.99,0,.74.37,1.12,1.56,1.89,1.54,1,1.97,1.86,1.97,3.19,0,1.66-.94,2.67-2.7,2.67Z"/>
      </g>
      <g>
        <path class="cls-4" d="M44.22,176.85h23.14v7.53h-14.66v11.74h11.67v7.53h-11.67v13.16h14.66v7.53h-23.14v-47.5Z"/>
        <path class="cls-4" d="M80.05,199.99l-9.36-23.14h9.09l5.56,15.2,5.77-15.2h8.14l-9.36,23.14,9.77,24.36h-9.03l-6.04-16.49-6.24,16.49h-8.08l9.77-24.36Z"/>
        <path class="cls-4" d="M103.94,176.85h12.49c8.55,0,12.62,4.14,12.62,12.42v3.73c0,8.28-4.07,12.49-12.62,12.49h-4v18.86h-8.48v-47.5ZM116.43,197.95c2.85,0,4.14-1.29,4.14-4.68v-4.27c0-3.39-1.29-4.61-4.14-4.61h-4v13.57h4Z"/>
        <path class="cls-4" d="M133.87,176.85h23.14v7.53h-14.66v11.74h11.67v7.53h-11.67v13.16h14.66v7.53h-23.14v-47.5Z"/>
        <path class="cls-4" d="M161.89,176.85h12.55c8.62,0,12.55,3.73,12.55,11.47v2.38c0,4.95-1.76,8.08-5.5,9.57v.2c4,1.15,5.56,4.68,5.56,10.72v6.99c0,2.44.14,4.28.95,6.18h-8.62c-.48-1.29-.75-1.97-.75-6.24v-7.46c0-4.48-1.43-5.97-5.36-5.97h-2.92v19.68h-8.48v-47.5ZM173.5,197.14c3.33,0,5.02-1.43,5.02-5.16v-2.78c0-3.33-1.29-4.82-4.21-4.82h-3.94v12.76h3.12Z"/>
        <path class="cls-4" d="M199.69,184.38h-8.82v-7.53h26.19v7.53h-8.89v39.97h-8.48v-39.97Z"/>
      </g>
      <g>
        <path class="cls-4" d="M286.31,176.85h22.46v7.53h-13.98v12.28h10.93v7.53h-10.93v20.15h-8.48v-47.5Z"/>
        <path class="cls-4" d="M313.18,176.85h23.14v7.53h-14.66v11.74h11.67v7.53h-11.67v13.16h14.66v7.53h-23.14v-47.5Z"/>
        <path class="cls-4" d="M341.21,176.85h11.94l5.63,33.79,5.63-33.79h11.94v47.5h-8.01v-35.69l-6.31,35.69h-7.13l-6.31-35.69v35.69h-7.4v-47.5Z"/>
        <path class="cls-4" d="M382.87,176.85h8.48v47.5h-8.48v-47.5Z"/>
        <path class="cls-4" d="M397.87,176.85h10.52l8.48,27.96v-27.96h7.6v47.5h-8.55l-10.45-34.27v34.27h-7.6v-47.5Z"/>
        <path class="cls-4" d="M430.98,176.85h8.48v47.5h-8.48v-47.5Z"/>
        <path class="cls-4" d="M445.98,176.85h10.52l8.48,27.96v-27.96h7.6v47.5h-8.55l-10.45-34.27v34.27h-7.6v-47.5Z"/>
        <path class="cls-4" d="M478.49,212.2v-23.21c0-8.14,4.55-12.83,12.83-12.83s12.89,4.68,12.89,12.83v23.21c0,8.07-4.55,12.83-12.89,12.83s-12.83-4.75-12.83-12.83ZM495.72,212.61v-24.02c0-3.33-1.63-4.89-4.41-4.89s-4.34,1.56-4.34,4.89v24.02c0,3.26,1.56,4.89,4.34,4.89s4.41-1.63,4.41-4.89Z"/>
      </g>
    </g>
  </g>
</svg>