<?xml version="1.0" encoding="UTF-8"?>
<svg id="Camada_2" data-name="Camada 2" xmlns="http://www.w3.org/2000/svg" xmlns:xlink="http://www.w3.org/1999/xlink" viewBox="0 0 658.41 438.84">
  <defs>
    <style>
      .cls-1 {
        fill: #fecb2b;
      }

      .cls-2 {
        fill: #fff;
      }

      .cls-3 {
        fill: #1a1e3b;
      }

      .cls-4 {
        fill: url(#Gradiente_sem_nome_6);
      }

      .cls-5 {
        fill: url(#Gradiente_sem_nome_150);
      }

      .cls-6 {
        fill: none;
        stroke: url(#Gradiente_sem_nome_118);
        stroke-width: 2px;
      }
    </style>
    <linearGradient id="Gradiente_sem_nome_6" data-name="Gradiente sem nome 6" x1="-314.28" y1="1922.48" x2="596.13" y2="2129.41" gradientTransform="translate(0 2238.5897) scale(1 -1)" gradientUnits="userSpaceOnUse">
      <stop offset="0" stop-color="#3352a0"/>
      <stop offset="1" stop-color="#1a1f3b"/>
    </linearGradient>
    <linearGradient id="Gradiente_sem_nome_118" data-name="Gradiente sem nome 118" x1="82.03" y1="2183.03" x2="587.05" y2="2183.03" gradientTransform="translate(0 2238.5897) scale(1 -1)" gradientUnits="userSpaceOnUse">
      <stop offset="0" stop-color="#fec707"/>
      <stop offset="1" stop-color="#219e38"/>
    </linearGradient>
    <linearGradient id="Gradiente_sem_nome_150" data-name="Gradiente sem nome 150" x1="222.02" y1="1900.27" x2="443.84" y2="1900.27" gradientTransform="translate(0 2238.5897) scale(1 -1)" gradientUnits="userSpaceOnUse">
      <stop offset="0" stop-color="#fcdb63"/>
      <stop offset="1" stop-color="#fdc71c"/>
    </linearGradient>
  </defs>
  <g id="Camada_1-2" data-name="Camada 1">
    <g>
      <rect class="cls-4" x="5.97" width="652.43" height="338.34" rx="13.63" ry="13.63"/>
      <rect class="cls-6" x="83.03" y="28.22" width="502.3" height="54.67" rx="27.34" ry="27.34"/>
      <rect class="cls-5" x="223.13" y="305.87" width="219.48" height="64.91" rx="8.39" ry="8.39"/>
      <g>
        <path class="cls-1" d="M167.81,39.99v31.25h-5.66v-31.25h5.66Z"/>
        <path class="cls-1" d="M179.25,57.51v13.74h-5.52v-23.44h5.28v3.98h.27c.54-1.31,1.4-2.36,2.59-3.13,1.19-.77,2.65-1.16,4.4-1.16,1.62,0,3.03.35,4.23,1.04,1.21.69,2.14,1.69,2.81,3.01s.99,2.9.98,4.78v14.93h-5.52v-14.07c0-1.57-.4-2.79-1.21-3.68-.81-.88-1.93-1.33-3.35-1.33-.97,0-1.82.21-2.57.63-.75.42-1.33,1.03-1.75,1.82-.42.79-.63,1.76-.63,2.88Z"/>
        <path class="cls-1" d="M211.63,47.81v4.27h-13.48v-4.27h13.48ZM201.48,42.19h5.52v22.01c0,.74.11,1.31.34,1.7s.53.66.91.8c.38.14.79.21,1.25.21.35,0,.66-.03.95-.08.29-.05.51-.1.66-.14l.93,4.32c-.29.1-.71.21-1.26.34-.54.12-1.21.19-1.99.21-1.38.04-2.63-.17-3.74-.63s-1.99-1.18-2.63-2.16c-.65-.98-.96-2.2-.95-3.66v-22.92Z"/>
        <path class="cls-1" d="M226.63,71.71c-2.35,0-4.38-.49-6.08-1.47-1.7-.98-3.01-2.38-3.93-4.18-.92-1.81-1.37-3.94-1.37-6.39s.46-4.53,1.38-6.36,2.21-3.25,3.87-4.27,3.61-1.53,5.85-1.53c1.44,0,2.81.23,4.1.69,1.29.46,2.43,1.18,3.42,2.14.99.97,1.77,2.19,2.34,3.69.57,1.49.85,3.26.85,5.32v1.69h-19.21v-3.72h13.92c-.01-1.06-.24-2-.69-2.83-.45-.83-1.07-1.48-1.87-1.96-.8-.48-1.73-.72-2.79-.72-1.13,0-2.12.27-2.98.82-.85.54-1.52,1.26-1.99,2.14s-.71,1.84-.73,2.89v3.25c0,1.36.25,2.53.75,3.5.5.97,1.2,1.71,2.09,2.23.9.51,1.94.77,3.14.77.8,0,1.53-.11,2.18-.34.65-.23,1.22-.57,1.69-1.01.48-.45.84-1,1.08-1.66l5.16.58c-.33,1.36-.94,2.55-1.85,3.56-.91,1.01-2.07,1.8-3.49,2.35-1.41.55-3.03.83-4.85.83Z"/>
        <path class="cls-1" d="M247.25,57.51v13.74h-5.52v-23.44h5.28v3.98h.27c.54-1.31,1.4-2.36,2.59-3.13,1.19-.77,2.65-1.16,4.4-1.16,1.62,0,3.03.35,4.23,1.04,1.21.69,2.14,1.69,2.81,3.01s.99,2.9.98,4.78v14.93h-5.52v-14.07c0-1.57-.4-2.79-1.21-3.68-.81-.88-1.93-1.33-3.35-1.33-.97,0-1.82.21-2.57.63-.75.42-1.33,1.03-1.75,1.82-.42.79-.63,1.76-.63,2.88Z"/>
        <path class="cls-1" d="M286.45,54l-5.04.55c-.14-.51-.39-.99-.74-1.43s-.82-.81-1.41-1.08c-.59-.27-1.31-.41-2.17-.41-1.15,0-2.11.25-2.89.75-.78.5-1.16,1.15-1.15,1.94-.01.68.24,1.24.76,1.66s1.37.78,2.56,1.05l4,.85c2.22.48,3.87,1.24,4.95,2.27,1.08,1.04,1.63,2.4,1.64,4.07-.01,1.48-.44,2.77-1.29,3.9-.85,1.12-2.03,2-3.53,2.63-1.51.63-3.24.95-5.19.95-2.87,0-5.18-.6-6.93-1.81s-2.79-2.89-3.13-5.04l5.39-.52c.24,1.06.76,1.86,1.56,2.4.79.54,1.83.81,3.1.81s2.37-.27,3.17-.81c.8-.54,1.2-1.21,1.2-2,0-.67-.26-1.23-.77-1.66-.51-.44-1.31-.77-2.39-1.01l-4-.84c-2.25-.47-3.91-1.26-4.99-2.37-1.08-1.11-1.61-2.53-1.6-4.23-.01-1.44.38-2.7,1.18-3.76.8-1.06,1.91-1.89,3.34-2.47,1.43-.58,3.08-.88,4.95-.88,2.75,0,4.91.59,6.49,1.75,1.58,1.17,2.56,2.75,2.94,4.75Z"/>
        <path class="cls-1" d="M294.3,44.48c-.88,0-1.63-.3-2.26-.89s-.95-1.3-.95-2.12.32-1.53.95-2.11c.63-.58,1.38-.88,2.26-.88s1.64.3,2.27.89c.63.59.94,1.3.94,2.12s-.31,1.53-.94,2.11c-.62.59-1.38.88-2.27.88ZM291.52,71.25v-23.44h5.52v23.44h-5.52Z"/>
        <path class="cls-1" d="M323.66,47.81l-8.35,23.44h-6.1l-8.35-23.44h5.89l5.39,17.41h.24l5.4-17.41h5.88Z"/>
        <path class="cls-1" d="M337.7,71.71c-2.29,0-4.27-.5-5.95-1.51-1.68-1.01-2.98-2.42-3.9-4.23s-1.38-3.93-1.38-6.35.46-4.54,1.38-6.36c.92-1.82,2.22-3.24,3.9-4.24s3.66-1.51,5.95-1.51,4.27.5,5.95,1.51,2.98,2.42,3.9,4.24c.92,1.82,1.38,3.94,1.38,6.36s-.46,4.54-1.38,6.35-2.22,3.22-3.9,4.23c-1.68,1.01-3.66,1.51-5.95,1.51ZM337.73,67.28c1.24,0,2.28-.34,3.11-1.03.83-.69,1.46-1.61,1.87-2.77.41-1.16.62-2.45.62-3.88s-.21-2.73-.62-3.9-1.04-2.09-1.87-2.79c-.83-.69-1.87-1.04-3.11-1.04s-2.33.35-3.17,1.04c-.84.69-1.46,1.62-1.88,2.79s-.62,2.46-.62,3.9.21,2.72.62,3.88c.41,1.16,1.04,2.08,1.88,2.77.84.69,1.89,1.03,3.17,1.03Z"/>
        <path class="cls-1" d="M364.51,71.25v-31.25h11.72c2.4,0,4.42.45,6.05,1.34,1.63.9,2.87,2.12,3.71,3.69.84,1.56,1.26,3.33,1.26,5.32s-.42,3.78-1.27,5.34c-.84,1.56-2.09,2.78-3.74,3.67s-3.68,1.33-6.09,1.33h-7.77v-4.65h7c1.4,0,2.55-.24,3.45-.73.9-.49,1.56-1.16,1.99-2.01.43-.85.65-1.84.65-2.95s-.22-2.09-.65-2.93c-.43-.84-1.1-1.5-2-1.98s-2.06-.71-3.47-.71h-5.19v26.52h-5.66Z"/>
        <path class="cls-1" d="M391.92,71.25v-23.44h5.36v3.91h.24c.43-1.35,1.16-2.4,2.21-3.14s2.24-1.11,3.58-1.11c.3,0,.65.01,1.03.04.38.03.7.06.95.11v5.08c-.23-.08-.6-.15-1.11-.22-.5-.07-.99-.1-1.46-.1-1.01,0-1.91.22-2.71.65-.8.43-1.43,1.03-1.88,1.79-.46.76-.69,1.64-.69,2.64v13.78h-5.52Z"/>
        <path class="cls-1" d="M415.71,71.72c-1.49,0-2.82-.27-4.01-.8-1.19-.53-2.12-1.33-2.81-2.37-.69-1.05-1.03-2.34-1.03-3.88,0-1.32.24-2.42.73-3.28s1.15-1.56,2-2.08c.84-.52,1.8-.91,2.86-1.18,1.06-.27,2.16-.47,3.3-.59,1.37-.14,2.49-.27,3.34-.39.85-.12,1.48-.3,1.87-.55s.59-.64.59-1.17v-.09c0-1.15-.34-2.04-1.02-2.67s-1.66-.95-2.95-.95c-1.35,0-2.42.29-3.21.89-.79.59-1.32,1.29-1.59,2.09l-5.16-.73c.41-1.42,1.08-2.62,2.01-3.58.94-.96,2.08-1.68,3.43-2.17,1.35-.48,2.85-.73,4.49-.73,1.13,0,2.25.13,3.37.4s2.14.7,3.07,1.3c.93.61,1.67,1.43,2.24,2.46.56,1.04.85,2.33.85,3.89v15.69h-5.31v-3.22h-.18c-.34.65-.81,1.26-1.41,1.82-.61.56-1.36,1.02-2.27,1.36s-1.98.51-3.2.51ZM417.15,67.66c1.11,0,2.07-.22,2.88-.66.81-.44,1.44-1.03,1.88-1.76.44-.73.66-1.53.66-2.4v-2.76c-.17.14-.46.27-.88.4s-.87.23-1.38.32c-.51.09-1.01.17-1.51.24-.5.07-.93.13-1.3.18-.82.11-1.56.3-2.21.55s-1.17.61-1.54,1.06c-.38.45-.56,1.04-.56,1.75,0,1.02.37,1.79,1.11,2.3.74.52,1.69.78,2.84.78ZM416.69,44.72l3.42-6.97h5.4l-4.69,6.97h-4.14Z"/>
        <path class="cls-1" d="M445.37,47.81v4.27h-13.48v-4.27h13.48ZM435.22,42.19h5.52v22.01c0,.74.11,1.31.34,1.7.23.39.53.66.91.8.38.14.79.21,1.25.21.35,0,.66-.03.95-.08.29-.05.51-.1.66-.14l.93,4.32c-.3.1-.71.21-1.26.34-.54.12-1.21.19-1.99.21-1.38.04-2.63-.17-3.74-.63-1.11-.46-1.99-1.18-2.63-2.16-.65-.98-.96-2.2-.95-3.66v-22.92Z"/>
        <path class="cls-1" d="M452.77,44.48c-.88,0-1.63-.3-2.26-.89s-.95-1.3-.95-2.12.32-1.53.95-2.11c.63-.58,1.38-.88,2.26-.88s1.64.3,2.27.89c.62.59.94,1.3.94,2.12s-.31,1.53-.94,2.11c-.63.59-1.38.88-2.27.88ZM449.99,71.25v-23.44h5.52v23.44h-5.52Z"/>
        <path class="cls-1" d="M471.42,71.71c-2.34,0-4.35-.51-6.02-1.54-1.67-1.03-2.96-2.45-3.86-4.27s-1.35-3.91-1.35-6.28.46-4.48,1.37-6.31c.92-1.83,2.21-3.25,3.88-4.27s3.66-1.53,5.94-1.53c1.9,0,3.59.35,5.06,1.05,1.47.7,2.64,1.68,3.52,2.95.88,1.27,1.37,2.74,1.5,4.43h-5.28c-.21-1.13-.72-2.07-1.52-2.83-.8-.76-1.86-1.14-3.2-1.14-1.13,0-2.12.3-2.98.91-.85.61-1.52,1.47-1.99,2.6-.47,1.13-.71,2.48-.71,4.06s.23,2.97.7,4.11c.47,1.14,1.13,2.02,1.98,2.64.85.62,1.85.92,3,.92.81,0,1.54-.15,2.19-.47.65-.31,1.19-.76,1.62-1.35.44-.59.74-1.31.9-2.15h5.28c-.13,1.66-.62,3.13-1.46,4.4s-1.99,2.27-3.45,2.99-3.16,1.08-5.13,1.08Z"/>
        <path class="cls-1" d="M496.23,71.71c-2.29,0-4.27-.5-5.95-1.51-1.68-1.01-2.98-2.42-3.9-4.23-.92-1.81-1.38-3.93-1.38-6.35s.46-4.54,1.38-6.36c.92-1.82,2.22-3.24,3.9-4.24s3.66-1.51,5.95-1.51,4.27.5,5.95,1.51,2.98,2.42,3.9,4.24c.92,1.82,1.38,3.94,1.38,6.36s-.46,4.54-1.38,6.35-2.22,3.22-3.9,4.23c-1.68,1.01-3.66,1.51-5.95,1.51ZM496.26,67.28c1.24,0,2.28-.34,3.11-1.03.83-.69,1.46-1.61,1.87-2.77.41-1.16.62-2.45.62-3.88s-.21-2.73-.62-3.9-1.04-2.09-1.87-2.79c-.83-.69-1.87-1.04-3.11-1.04s-2.33.35-3.17,1.04c-.84.69-1.47,1.62-1.88,2.79-.41,1.17-.62,2.46-.62,3.9s.21,2.72.62,3.88c.41,1.16,1.04,2.08,1.88,2.77.84.69,1.89,1.03,3.17,1.03Z"/>
      </g>
      <g>
        <path class="cls-2" d="M26.63,122.52v-11.76h50.66v11.76h-18.17v48.17h-14.28v-48.17h-18.2Z"/>
        <path class="cls-2" d="M84.4,170.68v-59.93h24.76c4.49,0,8.36.8,11.63,2.41,3.27,1.61,5.79,3.91,7.56,6.91,1.78,3,2.66,6.54,2.66,10.64s-.91,7.68-2.72,10.58c-1.81,2.9-4.39,5.1-7.73,6.61-3.34,1.51-7.29,2.27-11.85,2.27h-15.66v-11.41h12.96c2.18,0,4.01-.29,5.49-.86,1.47-.58,2.59-1.45,3.35-2.63.76-1.18,1.14-2.7,1.14-4.55s-.38-3.39-1.14-4.61c-.76-1.22-1.88-2.14-3.37-2.75-1.48-.61-3.31-.92-5.47-.92h-7.14v48.26h-14.49ZM118.14,143.29l14.92,27.39h-15.8l-14.63-27.39h15.51Z"/>
        <path class="cls-2" d="M138.95,170.68v-59.93h41.79v11.76h-27.3v12.29h25.17v11.79h-25.17v12.32h27.3v11.76h-41.79Z"/>
        <path class="cls-2" d="M204.3,110.75v59.93h-14.49v-59.93h14.49Z"/>
        <path class="cls-2" d="M264.37,110.75v59.93h-12.29l-23.85-34.59h-.38v34.59h-14.49v-59.93h12.47l23.59,34.53h.5v-34.53h14.46Z"/>
        <path class="cls-2" d="M286.41,170.68h-15.57l20.22-59.93h19.28l20.22,59.93h-15.57l-14.08-44.83h-.47l-14.05,44.83ZM284.33,147.1h32.54v11h-32.54v-11Z"/>
        <path class="cls-2" d="M337.04,110.75h17.94l15.22,37.11h.7l15.22-37.11h17.94v59.93h-14.11v-36.81h-.5l-14.4,36.43h-9.01l-14.4-36.64h-.5v37.02h-14.11v-59.93Z"/>
        <path class="cls-2" d="M413.12,170.68v-59.93h41.79v11.76h-27.3v12.29h25.17v11.79h-25.17v12.32h27.3v11.76h-41.79Z"/>
        <path class="cls-2" d="M514.99,110.75v59.93h-12.29l-23.85-34.59h-.38v34.59h-14.49v-59.93h12.47l23.59,34.53h.5v-34.53h14.46Z"/>
        <path class="cls-2" d="M522.1,122.52v-11.76h50.66v11.76h-18.17v48.17h-14.28v-48.17h-18.2Z"/>
        <path class="cls-2" d="M636.43,140.72c0,6.59-1.27,12.18-3.8,16.77-2.54,4.58-5.96,8.07-10.29,10.45-4.32,2.38-9.17,3.57-14.53,3.57s-10.23-1.2-14.54-3.6c-4.31-2.4-7.73-5.89-10.26-10.46-2.53-4.57-3.79-10.15-3.79-16.72s1.26-12.18,3.79-16.77c2.53-4.58,5.95-8.07,10.26-10.45s9.16-3.57,14.54-3.57,10.21,1.19,14.53,3.57,7.75,5.86,10.29,10.45c2.54,4.58,3.8,10.17,3.8,16.77ZM621.63,140.72c0-3.9-.55-7.2-1.65-9.89-1.1-2.69-2.68-4.73-4.74-6.12s-4.53-2.08-7.42-2.08-5.34.69-7.4,2.08c-2.07,1.39-3.65,3.42-4.75,6.12-1.1,2.69-1.65,5.99-1.65,9.89s.55,7.2,1.65,9.89c1.1,2.69,2.69,4.73,4.75,6.12,2.07,1.39,4.54,2.08,7.4,2.08s5.36-.69,7.42-2.08c2.06-1.38,3.64-3.42,4.74-6.12,1.1-2.69,1.65-5.99,1.65-9.89Z"/>
      </g>
      <g>
        <path class="cls-2" d="M27.88,275.81v-91.15h62.22v17.89h-40.19v18.69h36.23v17.94h-36.23v36.63h-22.03Z"/>
        <path class="cls-2" d="M101.14,275.81v-91.15h63.56v17.89h-41.53v18.69h38.28v17.94h-38.28v18.74h41.53v17.89h-63.56Z"/>
        <path class="cls-2" d="M178.5,184.65h27.28l23.14,56.44h1.07l23.14-56.44h27.28v91.15h-21.45v-55.99h-.76l-21.9,55.41h-13.71l-21.9-55.73h-.76v56.3h-21.45v-91.15Z"/>
        <path class="cls-2" d="M316.25,184.65v91.15h-22.03v-91.15h22.03Z"/>
        <path class="cls-2" d="M407.63,184.65v91.15h-18.69l-36.27-52.61h-.58v52.61h-22.03v-91.15h18.96l35.87,52.52h.76v-52.52h21.99Z"/>
        <path class="cls-2" d="M443.46,184.65v91.15h-22.03v-91.15h22.03Z"/>
        <path class="cls-2" d="M534.83,184.65v91.15h-18.69l-36.27-52.61h-.58v52.61h-22.03v-91.15h18.96l35.87,52.52h.76v-52.52h21.99Z"/>
        <path class="cls-2" d="M634.66,230.23c0,10.03-1.93,18.53-5.79,25.5-3.86,6.97-9.07,12.27-15.65,15.89-6.57,3.62-13.94,5.43-22.1,5.43s-15.56-1.82-22.12-5.47c-6.56-3.65-11.76-8.95-15.6-15.91-3.84-6.96-5.76-15.44-5.76-25.44s1.92-18.53,5.76-25.5c3.84-6.97,9.04-12.27,15.6-15.89,6.56-3.62,13.93-5.43,22.12-5.43s15.53,1.81,22.1,5.43c6.57,3.62,11.79,8.92,15.65,15.89,3.86,6.97,5.79,15.47,5.79,25.5ZM612.14,230.23c0-5.93-.84-10.95-2.51-15.04-1.68-4.09-4.08-7.19-7.21-9.3-3.13-2.11-6.89-3.16-11.28-3.16s-8.12,1.05-11.26,3.16c-3.15,2.11-5.56,5.21-7.23,9.3-1.68,4.09-2.51,9.11-2.51,15.04s.84,10.95,2.51,15.04c1.68,4.09,4.09,7.2,7.23,9.3,3.14,2.11,6.9,3.16,11.26,3.16s8.15-1.05,11.28-3.16c3.13-2.11,5.53-5.21,7.21-9.3,1.68-4.09,2.51-9.11,2.51-15.04Z"/>
      </g>
      <g>
        <path class="cls-2" d="M8.84,430.35H0v-30.18h9.37c2.88,0,5.34.6,7.39,1.8,2.05,1.2,3.62,2.92,4.71,5.16s1.64,4.93,1.64,8.06-.56,5.88-1.67,8.14c-1.12,2.26-2.74,4-4.86,5.21-2.13,1.21-4.7,1.81-7.73,1.81ZM2.76,427.88h5.92c2.59,0,4.76-.51,6.51-1.53,1.75-1.02,3.06-2.48,3.93-4.38s1.31-4.16,1.31-6.78c0-2.6-.44-4.84-1.29-6.72-.85-1.88-2.11-3.32-3.77-4.32-1.67-1-3.72-1.5-6.17-1.5H2.76v25.23Z"/>
        <path class="cls-2" d="M37.38,430.82c-2.11,0-3.94-.49-5.48-1.48-1.54-.99-2.73-2.36-3.57-4.11-.84-1.75-1.26-3.77-1.26-6.06s.42-4.31,1.26-6.08c.84-1.77,2-3.16,3.49-4.17s3.21-1.51,5.17-1.51c1.23,0,2.41.22,3.55.67,1.14.45,2.16,1.13,3.07,2.05.91.92,1.63,2.07,2.16,3.46.53,1.39.8,3.03.8,4.93v1.3h-17.68v-2.31h15c0-1.45-.29-2.76-.88-3.93-.58-1.16-1.4-2.09-2.43-2.76-1.04-.68-2.23-1.02-3.59-1.02-1.43,0-2.7.38-3.79,1.15-1.09.77-1.94,1.78-2.56,3.04s-.93,2.63-.94,4.13v1.38c0,1.8.31,3.37.94,4.71.62,1.34,1.51,2.38,2.66,3.12,1.15.74,2.51,1.11,4.08,1.11,1.07,0,2.01-.17,2.82-.5s1.49-.78,2.05-1.35c.55-.56.97-1.19,1.26-1.86l2.49.81c-.34.95-.91,1.83-1.69,2.64s-1.75,1.45-2.92,1.94-2.5.73-4.02.73Z"/>
        <path class="cls-2" d="M51.32,438.84v-31.12h2.55v4.32h.31c.31-.68.75-1.37,1.3-2.09.55-.71,1.28-1.31,2.19-1.81.91-.49,2.06-.74,3.44-.74,1.87,0,3.5.49,4.9,1.47,1.4.98,2.49,2.34,3.27,4.1.78,1.75,1.17,3.79,1.17,6.12s-.39,4.39-1.17,6.15c-.78,1.76-1.87,3.13-3.27,4.11-1.4.98-3.02,1.47-4.87,1.47-1.37,0-2.51-.25-3.43-.74-.92-.49-1.66-1.1-2.23-1.82-.56-.72-1-1.43-1.3-2.11h-.24v12.69h-2.62ZM53.92,419.05c0,1.83.27,3.45.82,4.86.55,1.41,1.33,2.52,2.36,3.32,1.03.8,2.27,1.2,3.74,1.2s2.77-.41,3.81-1.25c1.04-.83,1.83-1.95,2.37-3.37.55-1.41.82-3,.82-4.76s-.27-3.31-.8-4.7-1.32-2.5-2.37-3.32-2.32-1.23-3.83-1.23-2.73.4-3.76,1.19c-1.03.79-1.82,1.88-2.35,3.27-.54,1.39-.8,2.99-.8,4.8Z"/>
        <path class="cls-2" d="M84.01,430.82c-1.95,0-3.68-.5-5.18-1.49-1.5-.99-2.67-2.37-3.51-4.12-.85-1.75-1.27-3.78-1.27-6.08s.42-4.36,1.27-6.12c.84-1.76,2.02-3.14,3.51-4.13s3.22-1.48,5.18-1.48,3.68.5,5.17,1.49c1.49.99,2.66,2.37,3.51,4.13s1.27,3.8,1.27,6.12-.42,4.33-1.27,6.08c-.85,1.75-2.02,3.13-3.51,4.12-1.5.99-3.23,1.49-5.18,1.49ZM84.01,428.42c1.57,0,2.9-.42,3.99-1.27,1.09-.85,1.92-1.97,2.48-3.37.56-1.4.85-2.95.85-4.64s-.28-3.24-.85-4.66c-.57-1.41-1.39-2.55-2.48-3.4-1.09-.85-2.42-1.28-3.99-1.28s-2.89.43-3.99,1.28-1.93,1.99-2.49,3.4c-.57,1.41-.85,2.97-.85,4.66s.28,3.24.85,4.64c.56,1.4,1.39,2.53,2.48,3.37s2.42,1.27,3.99,1.27Z"/>
        <path class="cls-2" d="M100.11,403.83c-.54,0-1-.18-1.38-.55-.38-.37-.57-.81-.57-1.33s.19-.96.58-1.33.85-.55,1.38-.55,1,.18,1.39.55c.38.37.57.81.57,1.33s-.19.97-.58,1.33c-.39.37-.85.55-1.38.55ZM98.77,430.35v-22.63h2.64v22.63h-2.64Z"/>
        <path class="cls-2" d="M122.57,412.69l-2.4.68c-.24-.68-.57-1.29-1-1.84-.43-.55-.99-.99-1.69-1.31-.69-.32-1.55-.49-2.57-.49-1.53,0-2.79.36-3.77,1.09s-1.47,1.66-1.47,2.81c0,.97.34,1.76,1.01,2.37.67.6,1.71,1.08,3.12,1.44l3.42.84c1.9.46,3.32,1.19,4.27,2.2s1.42,2.26,1.42,3.77c0,1.28-.35,2.41-1.06,3.4-.71.99-1.69,1.77-2.95,2.34-1.26.56-2.72.85-4.38.85-2.21,0-4.03-.5-5.47-1.5s-2.35-2.44-2.76-4.33l2.52-.62c.32,1.35.96,2.36,1.91,3.05.95.69,2.2,1.03,3.75,1.03,1.74,0,3.13-.39,4.17-1.17,1.04-.78,1.56-1.76,1.56-2.94,0-.91-.3-1.68-.91-2.31s-1.53-1.08-2.77-1.38l-3.7-.88c-1.96-.47-3.42-1.22-4.36-2.24-.94-1.02-1.41-2.29-1.41-3.8,0-1.25.34-2.35,1.02-3.29.68-.95,1.61-1.69,2.8-2.23s2.54-.81,4.07-.81c2.07,0,3.73.47,4.97,1.41,1.24.94,2.14,2.23,2.69,3.87Z"/>
        <path class="cls-2" d="M146.47,430.82c-1.86,0-3.48-.49-4.88-1.47-1.39-.98-2.48-2.35-3.26-4.11s-1.17-3.81-1.17-6.15.39-4.37,1.17-6.12,1.87-3.12,3.28-4.1c1.4-.98,3.04-1.47,4.91-1.47,1.38,0,2.52.24,3.43.73s1.65,1.09,2.2,1.81.98,1.41,1.28,2.09h.24v-11.86h2.64v30.18h-2.56v-4.2h-.31c-.3.69-.74,1.39-1.3,2.11-.56.72-1.3,1.33-2.22,1.82-.92.49-2.07.74-3.44.74ZM146.78,428.42c1.46,0,2.71-.4,3.74-1.2,1.03-.8,1.82-1.91,2.37-3.32.55-1.41.82-3.03.82-4.86s-.27-3.41-.81-4.8c-.54-1.39-1.33-2.48-2.36-3.27-1.03-.79-2.28-1.19-3.76-1.19s-2.79.41-3.82,1.23c-1.04.82-1.82,1.93-2.36,3.32-.54,1.4-.8,2.96-.8,4.7s.27,3.34.81,4.76c.54,1.41,1.33,2.54,2.36,3.37,1.04.83,2.31,1.25,3.81,1.25Z"/>
        <path class="cls-2" d="M169.1,430.87c-1.37,0-2.61-.27-3.74-.8-1.13-.54-2.03-1.31-2.7-2.33-.67-1.02-1-2.25-1-3.71,0-1.12.21-2.06.63-2.83.42-.77,1.02-1.39,1.8-1.89.78-.49,1.69-.88,2.76-1.16,1.06-.28,2.23-.51,3.51-.66,1.27-.16,2.34-.29,3.22-.41.88-.12,1.55-.3,2.01-.56.46-.26.69-.67.69-1.24v-.53c0-1.54-.46-2.76-1.38-3.65-.92-.89-2.24-1.33-3.96-1.33-1.63,0-2.96.36-3.99,1.08-1.03.72-1.75,1.56-2.16,2.53l-2.49-.9c.51-1.24,1.22-2.23,2.12-2.97.9-.74,1.92-1.28,3.04-1.61,1.12-.33,2.25-.49,3.4-.49.86,0,1.77.11,2.7.34.94.23,1.81.62,2.62,1.17.81.56,1.46,1.33,1.96,2.31.5.99.75,2.24.75,3.75v15.37h-2.62v-3.58h-.16c-.31.67-.78,1.32-1.4,1.95-.62.63-1.4,1.14-2.33,1.55s-2.03.6-3.29.6ZM169.45,428.47c1.4,0,2.6-.31,3.63-.93,1.02-.62,1.81-1.44,2.37-2.47s.83-2.16.83-3.4v-3.27c-.2.19-.52.35-.98.5s-.98.28-1.58.39c-.59.11-1.19.21-1.78.29-.59.08-1.12.15-1.59.21-1.28.16-2.37.4-3.27.74s-1.6.79-2.08,1.38c-.48.58-.72,1.33-.72,2.25,0,1.38.49,2.44,1.47,3.19s2.22,1.13,3.7,1.13Z"/>
        <path class="cls-2" d="M204.39,430.82c-2.02,0-3.78-.51-5.28-1.52-1.5-1.01-2.66-2.4-3.49-4.16s-1.24-3.76-1.24-6.01.42-4.29,1.26-6.06c.84-1.77,2.01-3.16,3.5-4.16,1.49-1.01,3.23-1.51,5.2-1.51,1.51,0,2.88.29,4.11.88s2.24,1.4,3.04,2.46c.8,1.06,1.3,2.29,1.51,3.69h-2.65c-.28-1.28-.94-2.37-1.98-3.28-1.05-.91-2.37-1.36-3.99-1.36-1.44,0-2.72.39-3.83,1.17-1.11.78-1.98,1.87-2.6,3.26s-.94,3-.94,4.83.3,3.46.91,4.87c.61,1.41,1.47,2.51,2.57,3.31,1.11.8,2.4,1.19,3.88,1.19,1,0,1.92-.19,2.75-.57.83-.38,1.53-.92,2.09-1.61.56-.7.95-1.53,1.14-2.49h2.65c-.2,1.37-.68,2.58-1.45,3.65s-1.77,1.9-2.99,2.51c-1.22.61-2.62.91-4.19.91Z"/>
        <path class="cls-2" d="M226.44,430.82c-1.95,0-3.68-.5-5.18-1.49-1.5-.99-2.67-2.37-3.51-4.12-.85-1.75-1.27-3.78-1.27-6.08s.42-4.36,1.27-6.12c.84-1.76,2.02-3.14,3.51-4.13s3.22-1.48,5.18-1.48,3.68.5,5.17,1.49c1.49.99,2.66,2.37,3.51,4.13s1.27,3.8,1.27,6.12-.42,4.33-1.27,6.08c-.85,1.75-2.02,3.13-3.51,4.12-1.5.99-3.23,1.49-5.18,1.49ZM226.44,428.42c1.57,0,2.9-.42,3.99-1.27,1.09-.85,1.92-1.97,2.48-3.37.56-1.4.85-2.95.85-4.64s-.28-3.24-.85-4.66c-.57-1.41-1.39-2.55-2.48-3.4-1.09-.85-2.42-1.28-3.99-1.28s-2.89.43-3.99,1.28-1.93,1.99-2.49,3.4c-.57,1.41-.85,2.97-.85,4.66s.28,3.24.85,4.64c.56,1.4,1.39,2.53,2.48,3.37s2.42,1.27,3.99,1.27Z"/>
        <path class="cls-2" d="M241.17,438.84v-31.12h2.55v4.32h.31c.31-.68.75-1.37,1.3-2.09.55-.71,1.28-1.31,2.19-1.81.91-.49,2.06-.74,3.44-.74,1.87,0,3.5.49,4.9,1.47,1.4.98,2.49,2.34,3.27,4.1s1.17,3.79,1.17,6.12-.39,4.39-1.17,6.15-1.87,3.13-3.27,4.11c-1.4.98-3.02,1.47-4.87,1.47-1.37,0-2.51-.25-3.43-.74-.92-.49-1.66-1.1-2.22-1.82-.57-.72-1-1.43-1.3-2.11h-.24v12.69h-2.62ZM243.76,419.05c0,1.83.27,3.45.82,4.86.54,1.41,1.33,2.52,2.36,3.32s2.27,1.2,3.74,1.2,2.77-.41,3.81-1.25c1.04-.83,1.83-1.95,2.37-3.37.55-1.41.82-3,.82-4.76s-.27-3.31-.8-4.7c-.54-1.4-1.32-2.5-2.37-3.32s-2.32-1.23-3.83-1.23-2.73.4-3.76,1.19c-1.03.79-1.82,1.88-2.35,3.27s-.8,2.99-.8,4.8Z"/>
        <path class="cls-2" d="M271.38,430.87c-1.37,0-2.61-.27-3.74-.8s-2.03-1.31-2.7-2.33c-.67-1.02-1-2.25-1-3.71,0-1.12.21-2.06.63-2.83.42-.77,1.02-1.39,1.8-1.89.78-.49,1.7-.88,2.76-1.16,1.06-.28,2.23-.51,3.51-.66,1.27-.16,2.34-.29,3.22-.41.88-.12,1.55-.3,2.01-.56.46-.26.69-.67.69-1.24v-.53c0-1.54-.46-2.76-1.38-3.65-.92-.89-2.24-1.33-3.96-1.33s-2.96.36-3.99,1.08c-1.03.72-1.75,1.56-2.16,2.53l-2.49-.9c.51-1.24,1.22-2.23,2.12-2.97.9-.74,1.92-1.28,3.04-1.61,1.12-.33,2.25-.49,3.4-.49.86,0,1.77.11,2.7.34.94.23,1.81.62,2.62,1.17s1.46,1.33,1.96,2.31c.5.99.75,2.24.75,3.75v15.37h-2.62v-3.58h-.16c-.31.67-.78,1.32-1.4,1.95-.62.63-1.39,1.14-2.33,1.55-.93.4-2.03.6-3.29.6ZM271.73,428.47c1.39,0,2.6-.31,3.63-.93,1.02-.62,1.81-1.44,2.36-2.47.55-1.03.83-2.16.83-3.4v-3.27c-.2.19-.52.35-.98.5-.46.15-.98.28-1.58.39-.59.11-1.19.21-1.78.29-.59.08-1.12.15-1.59.21-1.28.16-2.37.4-3.27.74-.9.33-1.6.79-2.08,1.38s-.72,1.33-.72,2.25c0,1.38.49,2.44,1.47,3.19.98.75,2.22,1.13,3.7,1.13Z"/>
        <path class="cls-2" d="M291.51,426.23l-.27,1.58c-.17,1.06-.4,2.23-.71,3.51-.3,1.28-.62,2.49-.94,3.64s-.6,2.07-.84,2.77h-2.02c.13-.67.29-1.52.49-2.55.2-1.03.41-2.17.63-3.43.22-1.25.41-2.54.59-3.87l.21-1.65h2.86Z"/>
        <path class="cls-2" d="M314.18,430.8c-1.84,0-3.39-.47-4.67-1.41-1.28-.94-2.18-2.28-2.7-4.02-.52-1.74-.58-3.84-.18-6.28.41-2.45,1.17-4.54,2.28-6.28,1.11-1.74,2.46-3.07,4.05-3.99,1.59-.92,3.29-1.39,5.11-1.39,1.4,0,2.5.23,3.28.7s1.36,1.01,1.73,1.63.65,1.16.84,1.64h.27l1.87-11.21h4.41l-5.01,30.18h-4.3l.59-3.52h-.37c-.34.48-.82,1.03-1.42,1.65-.6.62-1.37,1.16-2.31,1.62-.93.46-2.09.69-3.46.69ZM315.66,427.04c1.27,0,2.4-.34,3.41-1.01,1.01-.67,1.85-1.61,2.52-2.81.67-1.2,1.14-2.59,1.41-4.18.27-1.57.26-2.95-.02-4.13-.28-1.18-.81-2.1-1.59-2.76-.78-.66-1.82-.99-3.12-.99s-2.47.34-3.45,1.03c-.98.69-1.79,1.63-2.41,2.81s-1.06,2.53-1.3,4.02c-.26,1.51-.27,2.87-.04,4.08.23,1.21.73,2.16,1.49,2.87.76.7,1.8,1.05,3.1,1.05Z"/>
        <path class="cls-2" d="M330.72,430.35l3.77-22.63h4.41l-3.77,22.63h-4.41ZM337.61,404.18c-.77,0-1.41-.26-1.94-.77-.53-.52-.77-1.13-.73-1.85.03-.73.33-1.35.9-1.86.57-.52,1.24-.77,2-.77s1.41.26,1.93.77c.52.52.77,1.13.74,1.85-.03.73-.33,1.35-.9,1.86-.57.52-1.24.77-2,.77Z"/>
        <path class="cls-2" d="M340.05,430.35l3.77-22.63h4.26l-.62,3.6h.24c.61-1.22,1.5-2.18,2.67-2.88,1.17-.7,2.42-1.05,3.75-1.05.29,0,.61,0,.97.02.36.01.66.04.88.08l-.71,4.21c-.17-.05-.47-.11-.92-.17-.45-.06-.9-.1-1.36-.1-1.04,0-2,.22-2.88.66-.88.44-1.62,1.04-2.22,1.81s-.99,1.65-1.16,2.63l-2.27,13.82h-4.41Z"/>
        <path class="cls-2" d="M364.75,430.81c-2.22,0-4.05-.48-5.5-1.44-1.45-.96-2.46-2.31-3.04-4.05-.58-1.74-.67-3.79-.28-6.14.38-2.32,1.15-4.36,2.31-6.13s2.61-3.15,4.35-4.14c1.74-.99,3.65-1.49,5.75-1.49,1.28,0,2.48.21,3.62.63,1.13.42,2.1,1.09,2.9,1.99.8.9,1.35,2.08,1.66,3.51.3,1.44.28,3.19-.06,5.24l-.25,1.56h-17.99l.53-3.3h13.68c.2-1.16.13-2.19-.18-3.09-.32-.9-.86-1.61-1.61-2.13-.76-.52-1.71-.78-2.86-.78s-2.28.31-3.3.93-1.87,1.41-2.56,2.36c-.68.95-1.11,1.94-1.29,2.96l-.5,3.02c-.27,1.65-.22,2.98.13,3.98s.97,1.73,1.85,2.18c.88.45,1.99.68,3.32.68.84,0,1.63-.12,2.36-.36.73-.24,1.38-.6,1.95-1.08s1.05-1.08,1.44-1.78l4.04.75c-.54,1.23-1.32,2.3-2.33,3.22-1.01.92-2.2,1.63-3.57,2.14-1.37.51-2.89.76-4.55.76Z"/>
        <path class="cls-2" d="M392.83,407.72l-.57,3.54h-12.36l.57-3.54h12.36ZM384.67,402.3h4.41l-3.57,21.41c-.14.85-.11,1.5.07,1.92.19.43.47.72.86.87.39.15.82.23,1.3.23.35,0,.66-.02.93-.07.27-.05.48-.09.63-.12l.22,3.64c-.29.1-.68.2-1.17.3-.5.1-1.1.16-1.81.17-1.16.02-2.2-.19-3.13-.62-.93-.43-1.62-1.1-2.09-2-.46-.9-.58-2.04-.35-3.4l3.68-22.32Z"/>
        <path class="cls-2" d="M402.56,430.81c-2.15,0-3.95-.49-5.39-1.48-1.44-.99-2.46-2.37-3.04-4.16-.59-1.78-.69-3.86-.3-6.23.37-2.32,1.13-4.34,2.26-6.07s2.56-3.07,4.28-4.02c1.72-.95,3.63-1.43,5.72-1.43s3.95.5,5.39,1.49c1.44.99,2.45,2.38,3.04,4.17s.69,3.87.31,6.25c-.37,2.31-1.13,4.32-2.28,6.04-1.14,1.72-2.57,3.06-4.28,4.01-1.71.95-3.61,1.43-5.7,1.43ZM402.81,427.11c1.41,0,2.65-.37,3.71-1.11,1.06-.74,1.92-1.73,2.59-2.98s1.13-2.61,1.37-4.09c.23-1.41.22-2.71,0-3.9-.23-1.18-.72-2.13-1.48-2.85-.76-.72-1.81-1.08-3.15-1.08-1.41,0-2.65.38-3.72,1.13-1.07.75-1.93,1.75-2.59,3-.66,1.25-1.11,2.61-1.35,4.08-.23,1.42-.23,2.73,0,3.91s.72,2.12,1.48,2.83c.76.71,1.82,1.06,3.16,1.06Z"/>
        <path class="cls-2" d="M425.52,438.84l5.22-31.12h4.3l-.6,3.67h.37c.32-.47.78-1.02,1.36-1.64s1.34-1.16,2.28-1.63,2.12-.7,3.52-.7c1.83,0,3.38.46,4.65,1.39,1.27.92,2.18,2.25,2.71,3.99.54,1.74.6,3.83.2,6.28-.4,2.45-1.16,4.54-2.27,6.28-1.11,1.74-2.45,3.08-4.03,4.02-1.58.94-3.28,1.41-5.11,1.41-1.38,0-2.46-.23-3.26-.69-.8-.46-1.39-1-1.77-1.62-.38-.62-.67-1.17-.86-1.65h-.28l-2,12.01h-4.44ZM433.17,419.04c-.26,1.59-.26,2.99,0,4.18.25,1.2.77,2.13,1.54,2.81.77.67,1.79,1.01,3.06,1.01s2.47-.35,3.46-1.05c.99-.7,1.81-1.66,2.47-2.87.65-1.21,1.11-2.57,1.38-4.08.24-1.49.23-2.83-.02-4.02s-.76-2.13-1.53-2.81c-.77-.69-1.81-1.03-3.14-1.03s-2.41.33-3.41.99c-1,.66-1.82,1.58-2.46,2.76-.64,1.18-1.09,2.55-1.35,4.13Z"/>
        <path class="cls-2" d="M458.09,430.85c-1.44,0-2.69-.27-3.76-.8-1.07-.54-1.86-1.31-2.37-2.34-.51-1.02-.64-2.27-.41-3.76.23-1.28.65-2.33,1.28-3.15.63-.83,1.4-1.48,2.31-1.97s1.91-.85,2.98-1.1c1.07-.25,2.15-.43,3.24-.55,1.38-.16,2.49-.29,3.35-.4.86-.11,1.5-.28,1.93-.52.43-.24.69-.61.79-1.13v-.1c.21-1.28.02-2.27-.55-2.98-.57-.71-1.57-1.07-2.98-1.07s-2.71.33-3.71.98-1.73,1.38-2.19,2.17l-3.96-.94c.71-1.38,1.61-2.49,2.7-3.34,1.09-.85,2.3-1.47,3.6-1.86,1.31-.39,2.64-.58,4.01-.58.9,0,1.84.11,2.81.32.97.21,1.86.6,2.66,1.16.8.56,1.4,1.36,1.79,2.39.39,1.04.46,2.38.19,4.03l-2.5,15.03h-4.3l.53-3.09h-.18c-.37.57-.89,1.13-1.55,1.68-.66.55-1.47,1.01-2.42,1.37-.95.36-2.05.55-3.3.55ZM459.61,427.32c1.21,0,2.29-.24,3.24-.72.95-.48,1.72-1.11,2.31-1.89.59-.78.96-1.62,1.11-2.51l.49-2.92c-.19.16-.51.3-.98.43s-.99.25-1.57.34c-.58.09-1.14.18-1.69.25-.55.07-1.01.14-1.37.18-.87.11-1.69.29-2.44.55s-1.38.62-1.88,1.1c-.5.48-.81,1.11-.93,1.89-.19,1.09.07,1.91.77,2.47.7.56,1.68.83,2.94.83Z"/>
        <path class="cls-2" d="M474.19,430.35l3.77-22.63h4.26l-.62,3.6h.24c.61-1.22,1.5-2.18,2.67-2.88,1.17-.7,2.42-1.05,3.75-1.05.29,0,.61,0,.97.02.36.01.66.04.88.08l-.71,4.21c-.17-.05-.47-.11-.92-.17-.45-.06-.9-.1-1.36-.1-1.04,0-2,.22-2.88.66-.88.44-1.62,1.04-2.22,1.81s-.99,1.65-1.16,2.63l-2.27,13.82h-4.41Z"/>
        <path class="cls-2" d="M495.72,430.85c-1.44,0-2.69-.27-3.76-.8-1.07-.54-1.86-1.31-2.37-2.34-.51-1.02-.64-2.27-.41-3.76.23-1.28.65-2.33,1.28-3.15.63-.83,1.4-1.48,2.31-1.97s1.91-.85,2.98-1.1c1.07-.25,2.15-.43,3.24-.55,1.38-.16,2.49-.29,3.35-.4.86-.11,1.5-.28,1.93-.52.43-.24.69-.61.79-1.13v-.1c.21-1.28.02-2.27-.55-2.98-.57-.71-1.57-1.07-2.98-1.07s-2.71.33-3.71.98-1.73,1.38-2.19,2.17l-3.96-.94c.71-1.38,1.61-2.49,2.7-3.34,1.09-.85,2.3-1.47,3.6-1.86,1.31-.39,2.64-.58,4.01-.58.9,0,1.84.11,2.81.32.97.21,1.86.6,2.66,1.16.8.56,1.4,1.36,1.79,2.39.39,1.04.46,2.38.19,4.03l-2.5,15.03h-4.3l.53-3.09h-.18c-.37.57-.89,1.13-1.55,1.68-.66.55-1.47,1.01-2.42,1.37-.95.36-2.05.55-3.3.55ZM497.24,427.32c1.21,0,2.29-.24,3.24-.72.95-.48,1.72-1.11,2.31-1.89.59-.78.96-1.62,1.11-2.51l.49-2.92c-.19.16-.51.3-.98.43s-.99.25-1.57.34c-.58.09-1.14.18-1.69.25-.55.07-1.01.14-1.37.18-.87.11-1.69.29-2.44.55s-1.38.62-1.88,1.1c-.5.48-.81,1.11-.93,1.89-.19,1.09.07,1.91.77,2.47.7.56,1.68.83,2.94.83Z"/>
        <path class="cls-2" d="M520.42,438.84l5.22-31.12h4.3l-.6,3.67h.37c.32-.47.78-1.02,1.36-1.64s1.34-1.16,2.28-1.63,2.12-.7,3.52-.7c1.83,0,3.38.46,4.65,1.39,1.27.92,2.18,2.25,2.71,3.99.54,1.74.6,3.83.2,6.28-.4,2.45-1.16,4.54-2.27,6.28-1.11,1.74-2.45,3.08-4.03,4.02-1.58.94-3.28,1.41-5.11,1.41-1.38,0-2.46-.23-3.26-.69-.8-.46-1.39-1-1.77-1.62-.38-.62-.67-1.17-.86-1.65h-.28l-2,12.01h-4.44ZM528.07,419.04c-.26,1.59-.26,2.99,0,4.18.25,1.2.77,2.13,1.54,2.81.77.67,1.79,1.01,3.06,1.01s2.47-.35,3.46-1.05c.99-.7,1.81-1.66,2.47-2.87.65-1.21,1.11-2.57,1.38-4.08.24-1.49.23-2.83-.02-4.02s-.76-2.13-1.53-2.81c-.77-.69-1.81-1.03-3.14-1.03s-2.41.33-3.41.99c-1,.66-1.82,1.58-2.46,2.76-.64,1.18-1.09,2.55-1.35,4.13Z"/>
        <path class="cls-2" d="M546.46,430.35l3.77-22.63h4.26l-.62,3.6h.24c.61-1.22,1.5-2.18,2.67-2.88,1.17-.7,2.42-1.05,3.75-1.05.29,0,.61,0,.97.02.36.01.66.04.88.08l-.71,4.21c-.17-.05-.47-.11-.92-.17-.45-.06-.9-.1-1.36-.1-1.04,0-2,.22-2.88.66-.88.44-1.62,1.04-2.22,1.81s-.99,1.65-1.16,2.63l-2.27,13.82h-4.41Z"/>
        <path class="cls-2" d="M568,430.85c-1.44,0-2.69-.27-3.76-.8-1.07-.54-1.86-1.31-2.37-2.34-.51-1.02-.64-2.27-.41-3.76.23-1.28.65-2.33,1.28-3.15.63-.83,1.4-1.48,2.31-1.97s1.91-.85,2.98-1.1c1.07-.25,2.15-.43,3.24-.55,1.38-.16,2.49-.29,3.35-.4.86-.11,1.5-.28,1.93-.52.43-.24.69-.61.79-1.13v-.1c.21-1.28.02-2.27-.55-2.98-.57-.71-1.57-1.07-2.98-1.07s-2.71.33-3.71.98-1.73,1.38-2.19,2.17l-3.96-.94c.71-1.38,1.61-2.49,2.7-3.34,1.09-.85,2.3-1.47,3.6-1.86,1.31-.39,2.64-.58,4.01-.58.9,0,1.84.11,2.81.32.97.21,1.86.6,2.66,1.16.8.56,1.4,1.36,1.79,2.39.39,1.04.46,2.38.19,4.03l-2.5,15.03h-4.3l.53-3.09h-.18c-.37.57-.89,1.13-1.55,1.68-.66.55-1.47,1.01-2.42,1.37-.95.36-2.05.55-3.3.55ZM569.52,427.32c1.21,0,2.29-.24,3.24-.72.95-.48,1.72-1.11,2.31-1.89.59-.78.96-1.62,1.11-2.51l.49-2.92c-.19.16-.51.3-.98.43s-.99.25-1.57.34c-.58.09-1.14.18-1.69.25-.55.07-1.01.14-1.37.18-.87.11-1.69.29-2.44.55s-1.38.62-1.88,1.1c-.5.48-.81,1.11-.93,1.89-.19,1.09.07,1.91.77,2.47.7.56,1.68.83,2.94.83ZM573.08,404.7l4.57-6.79h4.64l-5.69,6.79h-3.52Z"/>
        <path class="cls-2" d="M598.43,407.72l-.57,3.54h-12.36l.57-3.54h12.36ZM590.27,402.3h4.41l-3.57,21.41c-.14.85-.11,1.5.07,1.92.19.43.47.72.86.87.39.15.82.23,1.3.23.35,0,.66-.02.93-.07.27-.05.48-.09.63-.12l.22,3.64c-.29.1-.68.2-1.17.3-.5.1-1.1.16-1.81.17-1.16.02-2.2-.19-3.13-.62-.93-.43-1.62-1.1-2.09-2-.46-.9-.58-2.04-.35-3.4l3.68-22.32Z"/>
        <path class="cls-2" d="M598.53,430.35l3.77-22.63h4.41l-3.77,22.63h-4.41ZM605.42,404.18c-.77,0-1.41-.26-1.94-.77-.53-.52-.77-1.13-.73-1.85.03-.73.33-1.35.9-1.86.57-.52,1.24-.77,2-.77s1.41.26,1.93.77c.52.52.77,1.13.74,1.85-.03.73-.33,1.35-.9,1.86-.57.52-1.24.77-2,.77Z"/>
        <path class="cls-2" d="M617.34,430.81c-2.2,0-4-.5-5.41-1.5-1.41-1-2.38-2.37-2.93-4.13s-.64-3.77-.27-6.04c.37-2.3,1.14-4.33,2.29-6.09,1.15-1.76,2.6-3.14,4.35-4.13,1.74-.99,3.68-1.49,5.81-1.49,1.72,0,3.2.32,4.44.95s2.18,1.52,2.81,2.66c.64,1.14.91,2.47.82,3.99h-4.29c-.07-1.06-.46-1.97-1.18-2.74-.72-.77-1.77-1.15-3.15-1.15-1.24,0-2.37.32-3.4.96-1.03.64-1.9,1.56-2.61,2.74-.71,1.18-1.19,2.58-1.44,4.19-.28,1.65-.26,3.07.04,4.27.3,1.2.86,2.13,1.67,2.79.81.66,1.84.99,3.09.99.85,0,1.63-.15,2.37-.46.73-.31,1.38-.75,1.94-1.33.56-.58,1-1.28,1.33-2.09h4.29c-.41,1.46-1.11,2.77-2.1,3.92-.99,1.15-2.2,2.05-3.63,2.71-1.44.66-3.05.99-4.83.99Z"/>
        <path class="cls-2" d="M636.96,430.85c-1.44,0-2.69-.27-3.76-.8-1.07-.54-1.86-1.31-2.37-2.34-.51-1.02-.64-2.27-.41-3.76.23-1.28.65-2.33,1.28-3.15.63-.83,1.4-1.48,2.31-1.97s1.91-.85,2.98-1.1c1.07-.25,2.15-.43,3.24-.55,1.38-.16,2.49-.29,3.35-.4.86-.11,1.5-.28,1.93-.52.43-.24.69-.61.79-1.13v-.1c.21-1.28.02-2.27-.55-2.98-.57-.71-1.57-1.07-2.98-1.07s-2.71.33-3.71.98-1.73,1.38-2.19,2.17l-3.96-.94c.71-1.38,1.61-2.49,2.7-3.34,1.09-.85,2.3-1.47,3.6-1.86,1.31-.39,2.64-.58,4.01-.58.9,0,1.84.11,2.81.32.97.21,1.86.6,2.66,1.16.8.56,1.4,1.36,1.79,2.39.39,1.04.46,2.38.19,4.03l-2.5,15.03h-4.3l.53-3.09h-.18c-.37.57-.89,1.13-1.55,1.68-.66.55-1.47,1.01-2.42,1.37-.95.36-2.05.55-3.3.55ZM638.47,427.32c1.21,0,2.29-.24,3.24-.72.95-.48,1.72-1.11,2.31-1.89.59-.78.96-1.62,1.11-2.51l.49-2.92c-.19.16-.51.3-.98.43s-.99.25-1.57.34c-.58.09-1.14.18-1.69.25-.55.07-1.01.14-1.37.18-.87.11-1.69.29-2.44.55s-1.38.62-1.88,1.1c-.5.48-.81,1.11-.93,1.89-.19,1.09.07,1.91.77,2.47.7.56,1.68.83,2.94.83Z"/>
      </g>
      <g>
        <path class="cls-3" d="M263.17,355.67c-1.67,0-3.16-.29-4.47-.88-1.31-.59-2.34-1.46-3.09-2.61-.76-1.15-1.13-2.59-1.13-4.32,0-1.45.27-2.68.8-3.66.53-.99,1.26-1.78,2.18-2.39s1.97-1.06,3.15-1.36c1.18-.31,2.41-.52,3.71-.65,1.52-.16,2.75-.31,3.68-.45.93-.14,1.61-.36,2.03-.64s.63-.7.63-1.26v-.1c0-1.08-.34-1.92-1.01-2.51-.68-.59-1.63-.89-2.87-.89-1.31,0-2.35.29-3.12.86s-1.28,1.29-1.53,2.16l-6.72-.55c.34-1.59,1.01-2.97,2.01-4.13,1-1.17,2.29-2.06,3.88-2.69,1.59-.63,3.42-.95,5.51-.95,1.45,0,2.85.17,4.19.51,1.33.34,2.52.87,3.56,1.58,1.04.72,1.86,1.63,2.46,2.75.6,1.12.9,2.46.9,4.01v17.66h-6.89v-3.63h-.2c-.42.82-.98,1.54-1.69,2.16-.7.62-1.55,1.1-2.54,1.45-.99.35-2.13.52-3.43.52ZM265.25,350.66c1.07,0,2.01-.21,2.83-.64.82-.43,1.46-1,1.93-1.73.47-.73.7-1.55.7-2.47v-2.78c-.23.15-.54.28-.93.4s-.83.23-1.32.32c-.49.1-.98.18-1.47.26-.49.07-.93.14-1.33.2-.85.12-1.6.32-2.23.6s-1.13.64-1.48,1.1c-.35.46-.53,1.03-.53,1.71,0,.99.36,1.74,1.08,2.26.72.52,1.64.78,2.75.78Z"/>
        <path class="cls-3" d="M294.24,355.69c-2.65,0-4.93-.57-6.86-1.7-1.93-1.13-3.41-2.71-4.46-4.74-1.05-2.03-1.57-4.38-1.57-7.07s.52-5.07,1.57-7.1c1.05-2.03,2.53-3.61,4.46-4.74,1.93-1.13,4.21-1.7,6.86-1.7s4.94.57,6.86,1.7c1.93,1.13,3.41,2.71,4.46,4.74s1.57,4.4,1.57,7.1-.52,5.04-1.57,7.07-2.53,3.61-4.46,4.74c-1.93,1.13-4.21,1.7-6.86,1.7ZM294.27,350.06c1.2,0,2.21-.34,3.02-1.03.81-.69,1.42-1.63,1.83-2.82.41-1.19.62-2.55.62-4.07s-.21-2.88-.62-4.07c-.42-1.19-1.03-2.14-1.83-2.83-.81-.69-1.81-1.04-3.02-1.04s-2.24.35-3.06,1.04c-.82.69-1.44,1.64-1.86,2.83-.42,1.19-.62,2.55-.62,4.07s.21,2.88.62,4.07c.41,1.19,1.03,2.13,1.86,2.82.82.69,1.84,1.03,3.06,1.03Z"/>
        <path class="cls-3" d="M345.1,328.99l-9.15,26.18h-8.18l-9.15-26.18h7.67l5.44,18.73h.27l5.42-18.73h7.69Z"/>
        <path class="cls-3" d="M351.31,325.62c-1.08,0-2-.36-2.77-1.07-.77-.72-1.15-1.58-1.15-2.59s.39-1.88,1.16-2.6c.77-.72,1.69-1.08,2.76-1.08s2,.36,2.77,1.07,1.15,1.58,1.15,2.59-.38,1.88-1.15,2.6-1.69,1.08-2.77,1.08ZM347.66,355.18v-26.18h7.26v26.18h-7.26Z"/>
        <path class="cls-3" d="M383.98,328.99l-9.15,26.18h-8.18l-9.15-26.18h7.67l5.44,18.73h.27l5.42-18.73h7.69Z"/>
        <path class="cls-3" d="M398.37,355.69c-2.65,0-4.93-.57-6.86-1.7-1.93-1.13-3.41-2.71-4.46-4.74-1.05-2.03-1.57-4.38-1.57-7.07s.52-5.07,1.57-7.1c1.05-2.03,2.53-3.61,4.46-4.74,1.93-1.13,4.21-1.7,6.86-1.7s4.94.57,6.86,1.7c1.93,1.13,3.41,2.71,4.46,4.74s1.57,4.4,1.57,7.1-.52,5.04-1.57,7.07-2.53,3.61-4.46,4.74c-1.93,1.13-4.21,1.7-6.86,1.7ZM398.4,350.06c1.2,0,2.21-.34,3.02-1.03.81-.69,1.42-1.63,1.83-2.82.41-1.19.62-2.55.62-4.07s-.21-2.88-.62-4.07c-.42-1.19-1.03-2.14-1.83-2.83-.81-.69-1.81-1.04-3.02-1.04s-2.24.35-3.06,1.04c-.82.69-1.44,1.64-1.86,2.83-.42,1.19-.62,2.55-.62,4.07s.21,2.88.62,4.07c.41,1.19,1.03,2.13,1.86,2.82.82.69,1.84,1.03,3.06,1.03Z"/>
      </g>
    </g>
  </g>
</svg>